# File created by Blade
# Date/Time:  Wed Jan 21 17:16:13 2015
#---------------------------------------------------------
:version 1.10
:name HOM
:units
  mass 1.0
  length 1.000000
  angle deg
:documentation
     Acclaim Skeleton File
:root
   axis xyz
   order TX TY TZ RX RY RZ
   position 0.000000 0.000000 0.000000
   orientation 0 0 0
:bonedata
   begin
      id 1
      name Spine_dum
      direction 0.000000 1.000000 0.000000
      length 7.067664
      axis 0.0 0.0 0.0 xyz
   end
   begin
      id 2
      name LeftUpLeg_dum
      direction 1.000000 0.000000 0.000000
      length 4.013002
      axis 0.0 0.0 0.0 xyz
   end
   begin
      id 3
      name RightUpLeg_dum
      direction -1.000000 0.000000 0.000000
      length 4.013002
      axis 0.0 0.0 0.0 xyz
   end
   begin
      id 4
      name Spine
      direction 0.000000 1.000000 0.000000
      length 0.000000
      axis 0.0 0.0 0.0 xyz
      dof rx ry rz
   end
   begin
      id 5
      name Spine_dum1
      direction 0.000000 1.000000 0.000000
      length 15.039886
      axis 0.0 0.0 0.0 xyz
   end
   begin
      id 6
      name Spine_dum2
      direction 0.000000 1.000000 0.000000
      length 10.530368
      axis 0.0 0.0 0.0 xyz
   end
   begin
      id 7
      name Spine_dum3
      direction 0.000000 1.000000 0.000000
      length 10.530368
      axis 0.0 0.0 0.0 xyz
   end
   begin
      id 8
      name Head
      direction 0.000000 1.000000 0.000000
      length 4.527550
      axis 0.0 0.0 0.0 xyz
      dof rx ry rz
   end
   begin
      id 9
      name LeftShoulder
      direction 1.000000 0.000000 0.000000
      length 7.028855
      axis 0.0 0.0 -90.0 xyz
      dof rx ry rz
   end
   begin
      id 10
      name LeftArm
      direction 1.000000 0.000000 0.000000
      length 10.797705
      axis 0.0 0.0 -90.0 xyz
      dof rx ry rz
   end
   begin
      id 11
      name LeftForeArm
      direction 1.000000 0.000000 0.000000
      length 7.907442
      axis 0.0 0.0 -90.0 xyz
      dof ry rz rx
   end
   begin
      id 12
      name LeftHand
      direction 0.000000 0.000000 0.000000
      length 0.000000
      axis 0.0 0.0 -90.0 xyz
      dof rx ry rz
   end
   begin
      id 13
      name LeftHand_dum1
      direction 0.000000 0.000000 0.000000
      length 0.000000
      axis 0.0 0.0 -90.0 xyz
   end
   begin
      id 14
      name LeftHand_dum2
      direction 1.000000 0.000000 0.000000
      length 3.937000
      axis 0.0 0.0 -90.0 xyz
   end
   begin
      id 15
      name LeftHandThumb1
      direction 0.000000 0.000000 1.000000
      length 3.937000
      axis 0.0 0.0 -90.0 xyz
      dof rx rz ry
   end
   begin
      id 16
      name RightShoulder
      direction -1.000000 0.000000 0.000000
      length 7.028855
      axis 0.0 0.0 90.0 xyz
      dof rx ry rz
   end
   begin
      id 17
      name RightArm
      direction -1.000000 0.000000 0.000000
      length 10.797705
      axis 0.0 0.0 90.0 xyz
      dof rx ry rz
   end
   begin
      id 18
      name RightForeArm
      direction -1.000000 0.000000 0.000000
      length 7.907442
      axis 0.0 0.0 90.0 xyz
      dof ry rz rx
   end
   begin
      id 19
      name RightHand
      direction 0.000000 0.000000 0.000000
      length 0.000000
      axis 0.0 0.0 90.0 xyz
      dof rx ry rz
   end
   begin
      id 20
      name RightHand_dum1
      direction 0.000000 0.000000 0.000000
      length 0.000000
      axis 0.0 0.0 90.0 xyz
   end
   begin
      id 21
      name RightHand_dum2
      direction -1.000000 0.000000 0.000000
      length 3.937000
      axis 0.0 0.0 90.0 xyz
   end
   begin
      id 22
      name RightHandThumb1
      direction 0.000000 0.000000 1.000000
      length 3.937000
      axis 0.0 0.0 90.0 xyz
      dof rx rz ry
   end
   begin
      id 23
      name LeftUpLeg
      direction 0.000000 -1.000000 0.000000
      length 16.899758
      axis 0.0 0.0 0.0 xyz
      dof rx ry rz
   end
   begin
      id 24
      name LeftLeg
      direction 0.000000 -1.000000 0.000000
      length 17.389183
      axis 0.0 0.0 0.0 xyz
      dof rx ry rz
   end
   begin
      id 25
      name LeftFoot
      direction 0.000000 -0.258819 0.965926
      length 4.924528
      axis 15.0 0.0 0.0 xyz
      dof rx ry rz
   end
   begin
      id 26
      name LeftToeBase
      direction 0.000000 0.000000 1.000000
      length 2.952750
      axis 0.0 0.0 0.0 xyz
      dof rx ry rz
   end
   begin
      id 27
      name RightUpLeg
      direction 0.000000 -1.000000 0.000000
      length 16.899758
      axis 0.0 0.0 0.0 xyz
      dof rx ry rz
   end
   begin
      id 28
      name RightLeg
      direction 0.000000 -1.000000 0.000000
      length 17.389183
      axis 0.0 0.0 0.0 xyz
      dof rx ry rz
   end
   begin
      id 29
      name RightFoot
      direction 0.000000 -0.258819 0.965926
      length 4.924528
      axis 15.0 0.0 0.0 xyz
      dof rx ry rz
   end
   begin
      id 30
      name RightToeBase
      direction 0.000000 0.000000 1.000000
      length 2.952750
      axis 0.0 0.0 0.0 xyz
      dof rx ry rz
   end
:hierarchy
   begin
      root Spine_dum LeftUpLeg_dum RightUpLeg_dum
      Spine_dum Spine
      LeftUpLeg_dum LeftUpLeg
      RightUpLeg_dum RightUpLeg
      Spine Spine_dum1 Spine_dum2 Spine_dum3
      Spine_dum1 Head
      Spine_dum2 LeftShoulder
      Spine_dum3 RightShoulder
      LeftShoulder LeftArm
      LeftArm LeftForeArm
      LeftForeArm LeftHand
      LeftHand LeftHand_dum1 LeftHand_dum2
      LeftHand_dum1 LeftHandThumb1
      RightShoulder RightArm
      RightArm RightForeArm
      RightForeArm RightHand
      RightHand RightHand_dum1 RightHand_dum2
      RightHand_dum1 RightHandThumb1
      LeftUpLeg LeftLeg
      LeftLeg LeftFoot
      LeftFoot LeftToeBase
      RightUpLeg RightLeg
      RightLeg RightFoot
      RightFoot RightToeBase
   end

# File created by Blade
# Date/Time:  Wed Jan 21 17:16:23 2015
# Frame Rate: 120.000 fps
#------------------------------------------------------
:FULLY-SPECIFIED
:DEGREES
160
root 17.945127 35.694572 -20.175825 -180.084236 -0.934397 -180.521520
Spine 5.448999 2.872020 -3.835236
Head 32.189741 -2.670796 3.133219
LeftShoulder -8.424376 -20.525904 -4.785940
LeftArm -7.389967 12.928041 -56.785061
LeftForeArm 9.237231 -0.000000 1.047882
LeftHand -7.000405 -0.000000 -5.896202
LeftHandThumb1 -26.253704 0.000000 33.147579
RightShoulder -11.212129 -12.713657 9.292555
RightArm 13.508853 16.242823 63.156989
RightForeArm -28.926289 -0.000000 13.039219
RightHand -5.598349 0.000000 -10.013182
RightHandThumb1 -24.326973 -0.000000 -32.862282
LeftUpLeg 3.893917 10.418739 -2.037929
LeftLeg 0.400850 -0.000000 -0.000000
LeftFoot -21.056013 26.811352 -12.299910
LeftToeBase 23.592882 -0.000000 -0.000000
RightUpLeg 1.623572 -8.377260 -4.593453
RightLeg 4.348446 -0.000000 -0.000000
RightFoot -21.303925 -25.095974 17.423358
RightToeBase 24.984684 -0.000000 -0.000000
161
root 17.872449 35.698593 -20.110532 -180.060056 -0.872413 -180.558628
Spine 6.021959 2.870636 -3.870932
Head 32.005868 -2.594083 3.205109
LeftShoulder -8.365620 -20.410598 -4.925011
LeftArm -7.797545 13.678056 -58.244658
LeftForeArm 9.405254 -0.000000 1.262515
LeftHand -6.943805 -0.000000 -5.649773
LeftHandThumb1 -26.253704 0.000000 33.147579
RightShoulder -11.141428 -12.595373 9.456549
RightArm 13.446297 15.437781 63.896332
RightForeArm -29.002624 0.000000 13.032941
RightHand -5.367731 0.000000 -8.775980
RightHandThumb1 -24.326973 -0.000000 -32.862282
LeftUpLeg 3.715362 10.509909 -2.209463
LeftLeg 0.503493 -0.000000 -0.000000
LeftFoot -21.048156 26.773409 -12.292640
LeftToeBase 23.615884 -0.000000 -0.000000
RightUpLeg 1.088991 -7.994770 -4.684683
RightLeg 5.103373 -0.000000 -0.000000
RightFoot -21.535200 -25.411326 17.622828
RightToeBase 24.924184 -0.000000 -0.000000
162
root 17.800121 35.702418 -20.044674 -180.005399 -0.784668 -180.597832
Spine 6.549980 2.948862 -3.920324
Head 31.844110 -2.595050 3.340010
LeftShoulder -8.197528 -20.305481 -5.024032
LeftArm -8.235751 13.750036 -59.610421
LeftForeArm 10.049210 0.000000 1.405546
LeftHand -6.708063 -0.000000 -5.527915
LeftHandThumb1 -26.253704 0.000000 33.147579
RightShoulder -11.078104 -12.571847 9.645956
RightArm 13.354383 14.766760 64.594791
RightForeArm -29.180570 -0.000000 13.153177
RightHand -5.049106 -0.000000 -7.188465
RightHandThumb1 -24.326973 -0.000000 -32.862282
LeftUpLeg 3.509675 10.609666 -2.387894
LeftLeg 0.611066 -0.000000 -0.000000
LeftFoot -21.003879 26.701823 -12.252891
LeftToeBase 23.575268 -0.000000 -0.000000
RightUpLeg 0.534664 -7.655917 -4.784920
RightLeg 5.817490 -0.000000 -0.000000
RightFoot -21.734893 -25.633346 17.884455
RightToeBase 24.781937 -0.000000 -0.000000
163
root 17.728608 35.704993 -19.971308 -179.904449 -0.603818 -180.650774
Spine 7.061566 3.071810 -3.993329
Head 31.583470 -2.577636 3.440740
LeftShoulder -8.118314 -20.199854 -5.084413
LeftArm -8.630344 14.258771 -61.022311
LeftForeArm 10.086194 0.000000 1.570930
LeftHand -6.500794 -0.000000 -5.207678
LeftHandThumb1 -26.253704 0.000000 33.147579
RightShoulder -11.041215 -12.536830 9.811232
RightArm 13.366939 13.925949 65.230166
RightForeArm -29.274334 -0.000000 13.176771
RightHand -4.899012 -0.000000 -5.537129
RightHandThumb1 -24.326973 -0.000000 -32.862282
LeftUpLeg 3.247517 10.818731 -2.587692
LeftLeg 0.719356 -0.000000 -0.000000
LeftFoot -20.956411 26.642331 -12.226824
LeftToeBase 23.488992 -0.000000 -0.000000
RightUpLeg -0.156748 -7.262826 -4.876460
RightLeg 6.638086 -0.000000 -0.000000
RightFoot -21.925080 -25.982600 17.838564
RightToeBase 24.836894 -0.000000 -0.000000
164
root 17.657630 35.707444 -19.897085 -179.815821 -0.376777 -180.734895
Spine 7.597841 3.199904 -4.135604
Head 31.275495 -2.462147 3.615617
LeftShoulder -8.038111 -20.108367 -5.066133
LeftArm -8.999473 14.144296 -62.312362
LeftForeArm 10.496705 -0.000000 1.666530
LeftHand -6.237389 0.000000 -5.164086
LeftHandThumb1 -26.253704 0.000000 33.147579
RightShoulder -10.902124 -12.476876 9.958598
RightArm 13.315740 13.234242 65.858135
RightForeArm -29.511373 -0.000000 13.230429
RightHand -4.641243 -0.000000 -3.946689
RightHandThumb1 -24.326973 -0.000000 -32.862282
LeftUpLeg 3.017067 11.048852 -2.816992
LeftLeg 0.791620 -0.000000 -0.000000
LeftFoot -20.862016 26.603837 -12.194604
LeftToeBase 23.354831 -0.000000 -0.000000
RightUpLeg -0.848140 -6.579771 -4.988064
RightLeg 7.468445 -0.000000 -0.000000
RightFoot -22.147411 -26.600130 17.814686
RightToeBase 25.009885 -0.000000 -0.000000
165
root 17.565924 35.712206 -19.828901 -179.781231 -0.176080 -180.834598
Spine 8.213538 3.280830 -4.183644
Head 30.957032 -2.340835 3.616858
LeftShoulder -7.987098 -20.072902 -5.169290
LeftArm -9.325751 14.068691 -63.526683
LeftForeArm 10.578062 -0.000000 1.671166
LeftHand -5.987158 -0.000000 -4.922972
LeftHandThumb1 -26.253704 0.000000 33.147579
RightShoulder -10.841654 -12.514817 10.044683
RightArm 13.478948 12.700138 66.471200
RightForeArm -29.843876 -0.000000 13.136578
RightHand -4.105020 -0.000000 -2.209887
RightHandThumb1 -24.326973 -0.000000 -32.862282
LeftUpLeg 2.873385 11.223793 -3.094563
LeftLeg 0.806761 -0.000000 -0.000000
LeftFoot -20.788541 26.627071 -12.260892
LeftToeBase 23.233310 -0.000000 -0.000000
RightUpLeg -2.001842 -6.807947 -5.120779
RightLeg 9.288970 -0.000000 -0.000000
RightFoot -22.587412 -26.346469 18.122361
RightToeBase 24.439464 -0.000000 -0.000000
166
root 17.501243 35.715249 -19.757042 -179.705429 0.054909 -180.869470
Spine 8.780575 3.426104 -4.262624
Head 30.619720 -2.282267 3.735362
LeftShoulder -7.885742 -20.118085 -5.136632
LeftArm -9.710469 13.928283 -64.721892
LeftForeArm 10.540819 -0.000000 1.606124
LeftHand -5.673118 -0.000000 -4.747007
LeftHandThumb1 -26.253704 0.000000 33.147579
RightShoulder -10.787221 -12.560359 10.163925
RightArm 13.678202 12.269069 67.114206
RightForeArm -30.221694 -0.000000 12.913343
RightHand -3.418055 -0.000000 -0.438516
RightHandThumb1 -24.326973 -0.000000 -32.862282
LeftUpLeg 2.640282 11.488918 -3.253735
LeftLeg 0.916037 -0.000000 -0.000000
LeftFoot -20.746294 26.561788 -12.254244
LeftToeBase 23.168233 -0.000000 -0.000000
RightUpLeg -2.886277 -6.259590 -5.153059
RightLeg 10.508008 -0.000000 -0.000000
RightFoot -22.873467 -26.827871 18.188938
RightToeBase 24.047235 -0.000000 -0.000000
167
root 17.436524 35.719738 -19.682156 -179.623507 0.325632 -180.927492
Spine 9.344438 3.579013 -4.371265
Head 30.269601 -2.208999 3.821380
LeftShoulder -7.806195 -20.114979 -5.082237
LeftArm -9.995459 13.930512 -65.901318
LeftForeArm 10.219369 -0.000000 1.451592
LeftHand -5.391138 0.000000 -4.680768
LeftHandThumb1 -26.253704 0.000000 33.147579
RightShoulder -10.726473 -12.664560 10.274744
RightArm 13.996288 11.976080 67.752149
RightForeArm -30.642684 -0.000000 12.590556
RightHand -2.564153 -0.000000 1.415378
RightHandThumb1 -24.326973 -0.000000 -32.862282
LeftUpLeg 2.455557 11.610138 -3.458714
LeftLeg 0.899989 -0.000000 -0.000000
LeftFoot -20.684226 26.682524 -12.331290
LeftToeBase 23.113532 -0.000000 -0.000000
RightUpLeg -3.898227 -5.744470 -5.190854
RightLeg 11.945794 -0.000000 -0.000000
RightFoot -23.295265 -27.279439 18.379521
RightToeBase 22.777287 -0.000000 -0.000000
168
root 17.375423 35.722432 -19.606283 -179.531906 0.623913 -181.001428
Spine 9.918930 3.790356 -4.586357
Head 29.853328 -2.210311 4.135837
LeftShoulder -7.718879 -20.226546 -4.860984
LeftArm -10.457201 13.980973 -67.154656
LeftForeArm 9.683495 -0.000000 1.551557
LeftHand -5.225419 -0.000000 -4.502869
LeftHandThumb1 -26.253704 0.000000 33.147579
RightShoulder -10.531718 -12.412265 10.452916
RightArm 13.315365 9.317179 67.559524
RightForeArm -28.850096 0.000000 13.394812
RightHand -3.028634 -0.000000 2.141592
RightHandThumb1 -24.326973 -0.000000 -32.862282
LeftUpLeg 2.259714 11.760363 -3.674186
LeftLeg 0.887422 -0.000000 -0.000000
LeftFoot -20.619847 26.779035 -12.388959
LeftToeBase 23.078546 -0.000000 -0.000000
RightUpLeg -4.908636 -5.118943 -5.220401
RightLeg 13.347542 -0.000000 -0.000000
RightFoot -23.656180 -27.915087 18.349474
RightToeBase 21.295176 -0.000000 -0.000000
169
root 17.325386 35.727196 -19.530386 -179.442408 0.898444 -181.015317
Spine 10.502526 3.911078 -4.705636
Head 29.447318 -2.083461 4.276134
LeftShoulder -7.620379 -20.380438 -4.697124
LeftArm -10.926833 13.840329 -68.292367
LeftForeArm 9.506406 -0.000000 1.574528
LeftHand -5.093813 0.000000 -4.253762
LeftHandThumb1 -26.253704 0.000000 33.147579
RightShoulder -10.408400 -12.423439 10.524841
RightArm 13.410488 8.396555 67.971654
RightForeArm -28.790923 -0.000000 13.360599
RightHand -2.651302 -0.000000 3.763189
RightHandThumb1 -24.326973 -0.000000 -32.862282
LeftUpLeg 1.999444 12.085393 -3.797072
LeftLeg 1.000410 -0.000000 -0.000000
LeftFoot -20.543879 26.659825 -12.406312
LeftToeBase 22.878572 -0.000000 -0.000000
RightUpLeg -5.884138 -4.393749 -5.154235
RightLeg 14.676465 -0.000000 -0.000000
RightFoot -24.009686 -28.690725 18.552506
RightToeBase 19.661913 -0.000000 -0.000000
170
root 17.275004 35.728479 -19.462861 -179.399079 1.196073 -181.037080
Spine 11.107882 4.125351 -4.822923
Head 29.069138 -2.053209 4.451284
LeftShoulder -7.414496 -20.545294 -4.472946
LeftArm -11.325513 12.936343 -69.314580
LeftForeArm 10.048713 0.000000 1.463700
LeftHand -4.918387 -0.000000 -4.451664
LeftHandThumb1 -26.253704 0.000000 33.147579
RightShoulder -10.363204 -12.382704 10.565370
RightArm 13.457882 7.379786 68.337915
RightForeArm -28.730395 0.000000 13.313533
RightHand -2.240358 -0.000000 5.294127
RightHandThumb1 -24.326973 -0.000000 -32.862282
LeftUpLeg 1.828769 12.300848 -3.930070
LeftLeg 1.050227 -0.000000 -0.000000
LeftFoot -20.517436 26.731457 -12.354354
LeftToeBase 22.902408 -0.000000 -0.000000
RightUpLeg -6.848579 -3.855522 -5.088647
RightLeg 16.074002 -0.000000 -0.000000
RightFoot -24.355874 -29.343147 18.683956
RightToeBase 18.251286 -0.000000 -0.000000
171
root 17.219488 35.731491 -19.395070 -179.379395 1.495739 -181.126917
Spine 11.756161 4.268571 -5.017731
Head 28.683431 -1.937593 4.560662
LeftShoulder -7.281371 -20.606738 -4.257060
LeftArm -11.658534 12.733763 -70.361125
LeftForeArm 9.890040 -0.000000 1.532456
LeftHand -4.758213 -0.000000 -4.479804
LeftHandThumb1 -26.253704 0.000000 33.147579
RightShoulder -10.240159 -12.400419 10.561803
RightArm 13.559440 6.331620 68.692969
RightForeArm -28.715981 -0.000000 13.323945
RightHand -1.874874 -0.000000 6.693224
RightHandThumb1 -24.326973 -0.000000 -32.862282
LeftUpLeg 1.632020 12.557124 -4.129308
LeftLeg 1.200993 -0.000000 -0.000000
LeftFoot -20.501288 26.731058 -12.413087
LeftToeBase 22.901348 -0.000000 -0.000000
RightUpLeg -7.818932 -3.423006 -5.084413
RightLeg 17.525996 -0.000000 -0.000000
RightFoot -24.714215 -30.045068 18.747230
RightToeBase 16.691573 -0.000000 -0.000000
